<mxfile host="65bd71144e">
    <diagram id="R2lEEEUBdFMjLlhIrx00" name="Page-1">
        <mxGraphModel dx="543" dy="452" grid="1" gridSize="10" guides="1" tooltips="1" connect="1" arrows="1" fold="1" page="1" pageScale="1" pageWidth="850" pageHeight="1100" math="0" shadow="0" extFonts="Permanent Marker^https://fonts.googleapis.com/css?family=Permanent+Marker">
            <root>
                <mxCell id="0"/>
                <mxCell id="1" parent="0"/>
                <mxCell id="Tp4lkixFV1RsVsISwBe1-11" value="User" style="swimlane;fontStyle=0;childLayout=stackLayout;horizontal=1;startSize=26;fillColor=none;horizontalStack=0;resizeParent=1;resizeParentMax=0;resizeLast=0;collapsible=1;marginBottom=0;" parent="1" vertex="1">
                    <mxGeometry x="280" y="40" width="190" height="122" as="geometry"/>
                </mxCell>
                <mxCell id="Tp4lkixFV1RsVsISwBe1-12" value="User_id: ObjectId" style="text;strokeColor=none;fillColor=none;align=left;verticalAlign=top;spacingLeft=4;spacingRight=4;overflow=hidden;rotatable=0;points=[[0,0.5],[1,0.5]];portConstraint=eastwest;" parent="Tp4lkixFV1RsVsISwBe1-11" vertex="1">
                    <mxGeometry y="26" width="190" height="26" as="geometry"/>
                </mxCell>
                <mxCell id="Tp4lkixFV1RsVsISwBe1-13" value="Name: String&#10;&#10;" style="text;strokeColor=none;fillColor=none;align=left;verticalAlign=top;spacingLeft=4;spacingRight=4;overflow=hidden;rotatable=0;points=[[0,0.5],[1,0.5]];portConstraint=eastwest;" parent="Tp4lkixFV1RsVsISwBe1-11" vertex="1">
                    <mxGeometry y="52" width="190" height="26" as="geometry"/>
                </mxCell>
                <mxCell id="wyVPsDMHl-dBEXoj5cJ--5" value="Email: String" style="text;strokeColor=none;fillColor=none;spacingLeft=4;spacingRight=4;overflow=hidden;rotatable=0;points=[[0,0.5],[1,0.5]];portConstraint=eastwest;fontSize=12;" parent="Tp4lkixFV1RsVsISwBe1-11" vertex="1">
                    <mxGeometry y="78" width="190" height="22" as="geometry"/>
                </mxCell>
                <mxCell id="wyVPsDMHl-dBEXoj5cJ--6" value="Password: String" style="text;strokeColor=none;fillColor=none;spacingLeft=4;spacingRight=4;overflow=hidden;rotatable=0;points=[[0,0.5],[1,0.5]];portConstraint=eastwest;fontSize=12;" parent="Tp4lkixFV1RsVsISwBe1-11" vertex="1">
                    <mxGeometry y="100" width="190" height="22" as="geometry"/>
                </mxCell>
                <mxCell id="Tp4lkixFV1RsVsISwBe1-15" value="City" style="swimlane;fontStyle=0;childLayout=stackLayout;horizontal=1;startSize=20;fillColor=none;horizontalStack=0;resizeParent=1;resizeParentMax=0;resizeLast=0;collapsible=1;marginBottom=0;" parent="1" vertex="1">
                    <mxGeometry x="130" y="420" width="170" height="106" as="geometry"/>
                </mxCell>
                <mxCell id="Tp4lkixFV1RsVsISwBe1-16" value="City_id: ObjectId" style="text;strokeColor=none;fillColor=none;align=left;verticalAlign=top;spacingLeft=4;spacingRight=4;overflow=hidden;rotatable=0;points=[[0,0.5],[1,0.5]];portConstraint=eastwest;" parent="Tp4lkixFV1RsVsISwBe1-15" vertex="1">
                    <mxGeometry y="20" width="170" height="26" as="geometry"/>
                </mxCell>
                <mxCell id="Tp4lkixFV1RsVsISwBe1-46" value="Art Image: Image" style="text;strokeColor=none;fillColor=none;spacingLeft=4;spacingRight=4;overflow=hidden;rotatable=0;points=[[0,0.5],[1,0.5]];portConstraint=eastwest;fontSize=12;" parent="Tp4lkixFV1RsVsISwBe1-15" vertex="1">
                    <mxGeometry y="46" width="170" height="30" as="geometry"/>
                </mxCell>
                <mxCell id="wyVPsDMHl-dBEXoj5cJ--3" value="Post: String" style="text;strokeColor=none;fillColor=none;spacingLeft=4;spacingRight=4;overflow=hidden;rotatable=0;points=[[0,0.5],[1,0.5]];portConstraint=eastwest;fontSize=12;" parent="Tp4lkixFV1RsVsISwBe1-15" vertex="1">
                    <mxGeometry y="76" width="170" height="30" as="geometry"/>
                </mxCell>
                <mxCell id="Tp4lkixFV1RsVsISwBe1-33" value="Comment" style="swimlane;fontStyle=0;childLayout=stackLayout;horizontal=1;startSize=26;fillColor=none;horizontalStack=0;resizeParent=1;resizeParentMax=0;resizeLast=0;collapsible=1;marginBottom=0;" parent="1" vertex="1">
                    <mxGeometry x="620" y="190" width="200" height="168" as="geometry"/>
                </mxCell>
                <mxCell id="Tp4lkixFV1RsVsISwBe1-45" value="User_id: ObjectId" style="text;strokeColor=none;fillColor=none;spacingLeft=4;spacingRight=4;overflow=hidden;rotatable=0;points=[[0,0.5],[1,0.5]];portConstraint=eastwest;fontSize=12;" parent="Tp4lkixFV1RsVsISwBe1-33" vertex="1">
                    <mxGeometry y="26" width="200" height="30" as="geometry"/>
                </mxCell>
                <mxCell id="Tp4lkixFV1RsVsISwBe1-34" value="Content: String" style="text;strokeColor=none;fillColor=none;align=left;verticalAlign=top;spacingLeft=4;spacingRight=4;overflow=hidden;rotatable=0;points=[[0,0.5],[1,0.5]];portConstraint=eastwest;" parent="Tp4lkixFV1RsVsISwBe1-33" vertex="1">
                    <mxGeometry y="56" width="200" height="26" as="geometry"/>
                </mxCell>
                <mxCell id="Tp4lkixFV1RsVsISwBe1-35" value="Date: Date" style="text;strokeColor=none;fillColor=none;align=left;verticalAlign=top;spacingLeft=4;spacingRight=4;overflow=hidden;rotatable=0;points=[[0,0.5],[1,0.5]];portConstraint=eastwest;" parent="Tp4lkixFV1RsVsISwBe1-33" vertex="1">
                    <mxGeometry y="82" width="200" height="28" as="geometry"/>
                </mxCell>
                <mxCell id="Tp4lkixFV1RsVsISwBe1-36" value="User: [ref Profile]" style="text;strokeColor=none;fillColor=none;align=left;verticalAlign=top;spacingLeft=4;spacingRight=4;overflow=hidden;rotatable=0;points=[[0,0.5],[1,0.5]];portConstraint=eastwest;" parent="Tp4lkixFV1RsVsISwBe1-33" vertex="1">
                    <mxGeometry y="110" width="200" height="28" as="geometry"/>
                </mxCell>
                <mxCell id="cD-Kzu6MlijfJZMj0QtA-2" value="&lt;div&gt;&lt;span&gt;Post: [ref Post]&lt;/span&gt;&lt;/div&gt;" style="text;html=1;strokeColor=none;fillColor=none;align=left;verticalAlign=middle;whiteSpace=wrap;rounded=0;" parent="Tp4lkixFV1RsVsISwBe1-33" vertex="1">
                    <mxGeometry y="138" width="200" height="30" as="geometry"/>
                </mxCell>
                <mxCell id="Tp4lkixFV1RsVsISwBe1-37" value="CRUD" style="text;html=1;align=center;verticalAlign=middle;resizable=0;points=[];autosize=1;strokeColor=none;" parent="1" vertex="1">
                    <mxGeometry x="425" y="380" width="50" height="20" as="geometry"/>
                </mxCell>
                <mxCell id="Tp4lkixFV1RsVsISwBe1-43" value="CRUD" style="text;html=1;align=center;verticalAlign=middle;resizable=0;points=[];autosize=1;strokeColor=none;" parent="1" vertex="1">
                    <mxGeometry x="655" y="170" width="50" height="20" as="geometry"/>
                </mxCell>
                <mxCell id="Tp4lkixFV1RsVsISwBe1-49" value="" style="edgeStyle=entityRelationEdgeStyle;fontSize=12;html=1;endArrow=ERzeroToMany;endFill=1;exitX=0.905;exitY=1.033;exitDx=0;exitDy=0;exitPerimeter=0;" parent="1" source="cD-Kzu6MlijfJZMj0QtA-3" edge="1">
                    <mxGeometry width="100" height="100" relative="1" as="geometry">
                        <mxPoint x="480" y="140" as="sourcePoint"/>
                        <mxPoint x="620" y="206" as="targetPoint"/>
                    </mxGeometry>
                </mxCell>
                <mxCell id="cD-Kzu6MlijfJZMj0QtA-7" value="Profile" style="swimlane;align=center;" parent="1" vertex="1">
                    <mxGeometry x="30" y="80" width="180" height="200" as="geometry"/>
                </mxCell>
                <mxCell id="Tp4lkixFV1RsVsISwBe1-14" value="Profile Picture: Image&#10;&#10;Comment: [ref Comment]" style="text;strokeColor=none;fillColor=none;align=left;verticalAlign=top;spacingLeft=4;spacingRight=4;overflow=hidden;rotatable=0;points=[[0,0.5],[1,0.5]];portConstraint=eastwest;" parent="cD-Kzu6MlijfJZMj0QtA-7" vertex="1">
                    <mxGeometry x="10" y="70" width="190" height="28" as="geometry"/>
                </mxCell>
                <mxCell id="cD-Kzu6MlijfJZMj0QtA-3" value="Post: [ref Post]" style="text;html=1;strokeColor=none;fillColor=none;align=left;verticalAlign=middle;whiteSpace=wrap;rounded=0;" parent="cD-Kzu6MlijfJZMj0QtA-7" vertex="1">
                    <mxGeometry x="10" y="98" width="190" height="30" as="geometry"/>
                </mxCell>
                <mxCell id="cD-Kzu6MlijfJZMj0QtA-16" value="&lt;span style=&quot;text-align: left&quot;&gt;User_id: ObjectId&lt;/span&gt;" style="text;html=1;strokeColor=none;fillColor=none;align=center;verticalAlign=middle;whiteSpace=wrap;rounded=0;" parent="cD-Kzu6MlijfJZMj0QtA-7" vertex="1">
                    <mxGeometry x="10" y="20" width="100" height="30" as="geometry"/>
                </mxCell>
                <mxCell id="cD-Kzu6MlijfJZMj0QtA-17" value="Name: String" style="text;html=1;strokeColor=none;fillColor=none;align=center;verticalAlign=middle;whiteSpace=wrap;rounded=0;" parent="cD-Kzu6MlijfJZMj0QtA-7" vertex="1">
                    <mxGeometry y="40" width="90" height="30" as="geometry"/>
                </mxCell>
                <mxCell id="2" value="Created: Date" style="text;html=1;strokeColor=none;fillColor=none;align=center;verticalAlign=middle;whiteSpace=wrap;rounded=0;" vertex="1" parent="cD-Kzu6MlijfJZMj0QtA-7">
                    <mxGeometry x="10" y="160" width="90" height="20" as="geometry"/>
                </mxCell>
                <mxCell id="cD-Kzu6MlijfJZMj0QtA-9" value="Posts" style="swimlane;align=center;" parent="1" vertex="1">
                    <mxGeometry x="380" y="400" width="200" height="200" as="geometry"/>
                </mxCell>
                <mxCell id="cD-Kzu6MlijfJZMj0QtA-11" value="User: [ref Profile]" style="text;html=1;strokeColor=none;fillColor=none;align=center;verticalAlign=middle;whiteSpace=wrap;rounded=0;" parent="cD-Kzu6MlijfJZMj0QtA-9" vertex="1">
                    <mxGeometry y="160" width="115" height="30" as="geometry"/>
                </mxCell>
                <mxCell id="cD-Kzu6MlijfJZMj0QtA-12" value="City: [ref City]" style="text;html=1;strokeColor=none;fillColor=none;align=center;verticalAlign=middle;whiteSpace=wrap;rounded=0;" parent="cD-Kzu6MlijfJZMj0QtA-9" vertex="1">
                    <mxGeometry y="130" width="100" height="30" as="geometry"/>
                </mxCell>
                <mxCell id="cD-Kzu6MlijfJZMj0QtA-13" value="Title: String" style="text;html=1;strokeColor=none;fillColor=none;align=center;verticalAlign=middle;whiteSpace=wrap;rounded=0;" parent="cD-Kzu6MlijfJZMj0QtA-9" vertex="1">
                    <mxGeometry x="10" y="70" width="90" height="30" as="geometry"/>
                </mxCell>
                <mxCell id="cD-Kzu6MlijfJZMj0QtA-14" value="Image: image" style="text;html=1;strokeColor=none;fillColor=none;align=center;verticalAlign=middle;whiteSpace=wrap;rounded=0;" parent="cD-Kzu6MlijfJZMj0QtA-9" vertex="1">
                    <mxGeometry x="10" y="100" width="100" height="30" as="geometry"/>
                </mxCell>
                <mxCell id="cD-Kzu6MlijfJZMj0QtA-15" value="Content: String" style="text;html=1;strokeColor=none;fillColor=none;align=center;verticalAlign=middle;whiteSpace=wrap;rounded=0;" parent="cD-Kzu6MlijfJZMj0QtA-9" vertex="1">
                    <mxGeometry x="15" y="40" width="95" height="30" as="geometry"/>
                </mxCell>
                <mxCell id="cD-Kzu6MlijfJZMj0QtA-18" value="" style="edgeStyle=entityRelationEdgeStyle;fontSize=12;html=1;endArrow=ERmandOne;startArrow=ERmandOne;rounded=0;" parent="1" edge="1">
                    <mxGeometry width="100" height="100" relative="1" as="geometry">
                        <mxPoint x="210" y="180" as="sourcePoint"/>
                        <mxPoint x="280" y="80" as="targetPoint"/>
                    </mxGeometry>
                </mxCell>
                <mxCell id="cD-Kzu6MlijfJZMj0QtA-19" value="" style="edgeStyle=entityRelationEdgeStyle;fontSize=12;html=1;endArrow=ERoneToMany;rounded=0;exitX=1;exitY=0.75;exitDx=0;exitDy=0;" parent="1" source="cD-Kzu6MlijfJZMj0QtA-7" edge="1">
                    <mxGeometry width="100" height="100" relative="1" as="geometry">
                        <mxPoint x="300" y="170" as="sourcePoint"/>
                        <mxPoint x="380" y="440" as="targetPoint"/>
                    </mxGeometry>
                </mxCell>
                <mxCell id="cD-Kzu6MlijfJZMj0QtA-20" value="" style="edgeStyle=entityRelationEdgeStyle;fontSize=12;html=1;endArrow=ERoneToMany;rounded=0;exitX=1;exitY=0.5;exitDx=0;exitDy=0;entryX=0;entryY=0.5;entryDx=0;entryDy=0;" parent="1" source="Tp4lkixFV1RsVsISwBe1-16" target="cD-Kzu6MlijfJZMj0QtA-9" edge="1">
                    <mxGeometry width="100" height="100" relative="1" as="geometry">
                        <mxPoint x="310" y="370" as="sourcePoint"/>
                        <mxPoint x="410" y="270" as="targetPoint"/>
                    </mxGeometry>
                </mxCell>
                <mxCell id="cD-Kzu6MlijfJZMj0QtA-22" value="" style="edgeStyle=entityRelationEdgeStyle;fontSize=12;html=1;endArrow=ERoneToMany;rounded=0;exitX=0.75;exitY=0;exitDx=0;exitDy=0;entryX=0;entryY=0.5;entryDx=0;entryDy=0;" parent="1" source="cD-Kzu6MlijfJZMj0QtA-9" target="Tp4lkixFV1RsVsISwBe1-36" edge="1">
                    <mxGeometry width="100" height="100" relative="1" as="geometry">
                        <mxPoint x="370" y="370" as="sourcePoint"/>
                        <mxPoint x="470" y="270" as="targetPoint"/>
                    </mxGeometry>
                </mxCell>
                <mxCell id="cD-Kzu6MlijfJZMj0QtA-27" value="CRUD" style="text;strokeColor=none;fillColor=none;spacingLeft=4;spacingRight=4;overflow=hidden;rotatable=0;points=[[0,0.5],[1,0.5]];portConstraint=eastwest;fontSize=12;align=center;" parent="1" vertex="1">
                    <mxGeometry x="50" y="50" width="50" height="30" as="geometry"/>
                </mxCell>
                <mxCell id="4" value="Current City: [ref City]" style="text;html=1;strokeColor=none;fillColor=none;align=center;verticalAlign=middle;whiteSpace=wrap;rounded=0;" vertex="1" parent="1">
                    <mxGeometry x="40" y="210" width="120" height="20" as="geometry"/>
                </mxCell>
                <mxCell id="5" value="" style="edgeStyle=entityRelationEdgeStyle;fontSize=12;html=1;endArrow=ERoneToMany;rounded=0;" edge="1" parent="1">
                    <mxGeometry width="100" height="100" relative="1" as="geometry">
                        <mxPoint x="70" y="280" as="sourcePoint"/>
                        <mxPoint x="130" y="480" as="targetPoint"/>
                    </mxGeometry>
                </mxCell>
            </root>
        </mxGraphModel>
    </diagram>
</mxfile>